<?xml version="1.0" encoding="UTF-8"?>
<svg id="Camada_1" data-name="Camada 1" xmlns="http://www.w3.org/2000/svg" xmlns:xlink="http://www.w3.org/1999/xlink" viewBox="0 0 3840 2160">
  <defs>
    <style>
      .cls-1 {
        letter-spacing: 0em;
      }

      .cls-2 {
        letter-spacing: -.06em;
      }

      .cls-3 {
        fill: #215286;
        font-size: 459.19px;
        stroke: #235286;
        stroke-miterlimit: 10;
        stroke-width: 2px;
      }

      .cls-3, .cls-4 {
        font-family: ArialMT, Arial;
      }

      .cls-5 {
        letter-spacing: -.07em;
      }

      .cls-6 {
        fill: url(#Gradiente_sem_nome_174);
        stroke-width: 0px;
      }

      .cls-7 {
        letter-spacing: -.07em;
      }

      .cls-4 {
        fill: #7f8080;
        font-size: 171.02px;
      }
    </style>
    <linearGradient id="Gradiente_sem_nome_174" data-name="Gradiente sem nome 174" x1="726.15" y1="677.21" x2="731.58" y2="1990.79" gradientUnits="userSpaceOnUse">
      <stop offset=".07" stop-color="#0970a8"/>
      <stop offset=".14" stop-color="#106aa1"/>
      <stop offset=".27" stop-color="#1c6298"/>
      <stop offset=".42" stop-color="#206095"/>
      <stop offset=".47" stop-color="#396b97"/>
      <stop offset=".57" stop-color="#617e9a"/>
      <stop offset=".64" stop-color="#79899d"/>
      <stop offset=".69" stop-color="#838e9e"/>
      <stop offset="1" stop-color="#a0a6ad"/>
    </linearGradient>
  </defs>
  <text class="cls-4" transform="translate(1718.87 1385.09) scale(1.32 1)"><tspan x="0" y="0">D</tspan><tspan class="cls-5" x="123.51" y="0">AT</tspan><tspan class="cls-2" x="316.66" y="0">A</tspan><tspan class="cls-1" x="421.29" y="0" xml:space="preserve"> CENTERS</tspan></text>
  <text class="cls-3" transform="translate(1366.19 1161.44) scale(1.08 1)"><tspan x="0" y="0">CON</tspan><tspan class="cls-7" x="1020.4" y="0">A</tspan><tspan x="1292.59" y="0">TUS</tspan></text>
  <path class="cls-6" d="M117.27,1327.32c.44-38.44,31.98-65.99,64.93-61.61,14.81,1.97,29.37,6.88,43.62,11.66,23.45,7.87,35.66,3.29,46.59-18.94,14.46-29.41,28.24-38.87,52.62-36.13,19.99,2.25,37.62,19.1,39.68,37.92,2.45,22.45-18.65,45.25-43.14,45.87-7.47.19-15.02-1.42-22.47-2.59-33.36-5.23-47.05,2.21-59.9,32.78-15.56,37-57.24,51.69-92.73,32.1-18.59-10.26-28.87-26.17-29.18-41.06ZM91.25,1201.73c29.68,27.62,73.67,23.49,97.75-8.62,19.89-26.53,34.98-30.42,66.07-17.25,6.95,2.94,13.88,6.34,21.17,7.97,23.91,5.35,49.91-11.64,52.99-34.01,2.58-18.76-10.43-39.39-29.28-46.42-22.98-8.58-38.65-2.75-59.82,22.27-16,18.91-28.96,20.39-49.8,7.06-12.66-8.1-25.59-16.4-39.48-21.91-30.9-12.25-68.19,6.81-77.95,43.99-3.31,14.52,2.79,32.45,18.34,46.92ZM92.08,1021.53c20.43,35.01,63.74,43.78,96.07,19.99,26.71-19.65,42.28-19.01,68.24,2.58,5.8,4.82,11.46,10.08,17.97,13.75,21.34,12.03,51.15,3.27,60.56-17.25,7.89-17.21,1.39-40.72-14.62-52.9-19.53-14.85-36.21-13.8-63.7,4.04-20.78,13.48-33.62,11.15-49.71-7.63-9.78-11.42-19.76-23.09-31.47-32.38-26.04-20.66-67.25-13.18-87.33,19.6-7.37,12.95-6.7,31.88,4,50.21ZM138.84,853.64c10.32,39.17,50.26,57.11,88.45,40.35,31.55-13.84,46.6-9.89,66.03,17.11,4.34,6.03,8.43,12.46,13.78,17.5,17.55,16.51,49.12,14.16,63.99-4.24,12.47-15.43,12.6-40.19.3-55.71-15-18.93-31.61-21.43-63.42-9.56-24.05,8.97-35.96,3.92-46.51-18.18-6.42-13.43-12.95-27.17-21.84-38.9-19.76-26.09-62.13-27.44-90.83.86-10.78,11.3-15.35,30.26-9.95,50.77ZM240.58,711.39c.36,39.05,33.48,65.19,73.21,58.47,32.82-5.55,45.97,1.67,57.74,31.48,2.63,6.66,4.93,13.63,8.74,19.59,12.51,19.56,42.62,24.75,60.9,11.03,15.33-11.51,21.34-34.63,13.52-52.03-9.54-21.22-24.5-27.46-57.09-23.81-24.64,2.76-34.59-4.76-39.22-27.91-2.82-14.07-5.67-28.45-11.2-41.5-12.3-29.03-51.64-40.22-85.22-20.48-12.77,8.04-21.56,24.7-21.37,45.16ZM380.54,585.11c-13.96,35.23,8.81,68.53,50.08,74.21,34.09,4.69,44.29,15.07,44.87,45.36.13,6.77-.18,13.72,1.36,20.21,5.05,21.28,32.56,34.85,55.45,27.9,19.2-5.83,33.54-24.86,32.27-42.82-1.55-21.9-13.87-31.93-47.04-38.27-25.08-4.79-32.04-14.49-28.09-36.68,2.4-13.49,4.89-27.26,4.27-40.64-1.38-29.75-35.71-51.42-75.74-43.57-15.42,3.46-30.11,15.86-37.42,34.31ZM554.53,500.37c-23.63,28.6-12.42,66.45,24.34,84.16,30.37,14.63,36.75,27.36,28.17,55.74-1.92,6.34-4.3,12.72-4.82,19.22-1.7,21.34,19.86,42.25,43.3,42.67,19.65.35,38.75-13.04,42.98-30.15,5.16-20.86-3.31-33.9-32.33-49.79-21.94-12.01-25.5-23.14-15.13-42.61,6.3-11.83,12.77-23.91,16.22-36.55,7.67-28.11-17.8-58.63-57.49-63.37-15.42-1.42-32.85,5.7-45.23,20.68ZM731.33,454.21c-31.46,22.11-30.09,62.91,2.48,90.56,26.9,22.84,30.01,37.27,13.84,63.24-3.61,5.8-7.71,11.52-9.95,17.86-7.35,20.82,8.98,47.53,32.61,54.31,19.81,5.69,42.68-2.49,51.47-18.4,10.72-19.4,5.58-34.71-19.63-58.44-19.06-17.94-19.73-30-4.1-46.6,9.5-10.09,19.23-20.38,26.05-32.06,15.18-25.96-2.58-63.31-41.53-78.81-15.25-5.6-34.77-3.23-51.25,8.35ZM927.7,460c-35.97,11.48-48.61,49.89-28.56,85.09,16.56,29.08,14.46,43.43-8.99,62.94-5.24,4.36-10.89,8.49-15.07,13.76-13.72,17.27-8.04,46.89,11.01,60.06,15.98,11.04,39.45,10.06,52.81-2.22,16.29-14.97,16.85-30.72,2.13-60.14-11.13-22.24-7.64-33.68,12.14-44.61,12.03-6.65,24.32-13.41,34.46-22.31,22.55-19.78,19.2-59.74-10.74-85.48-11.88-9.64-30.34-13.1-49.19-7.09ZM1106.53,512.89c-38.42-1.81-61.55,31.63-51.81,73.87,8.05,34.9,1.97,48.35-26.45,59.09-6.35,2.4-13.03,4.43-18.6,8.11-18.27,12.08-21.02,43.53-6.07,63.57,12.54,16.81,35.78,24.43,52.29,17.16,20.14-8.87,25.1-24.28,18.95-58.84-4.65-26.13,1.97-36.19,24.39-39.77,13.63-2.18,27.56-4.38,39.98-9.48,27.62-11.34,35.54-52.17,13.46-88.67-8.92-13.91-26.02-24.11-46.14-25.06ZM1267.5,619.11c-37.63-8.26-71.22,16.79-74.9,55.2-3.04,31.73-13.34,42.37-45,46.76-7.07.98-14.36,1.58-21.07,3.81-22,7.33-34.68,34.18-26.15,54.2,7.15,16.79,27.85,27.46,46.58,24.01,22.84-4.2,32.65-16.73,37.46-47.84,3.64-23.52,13.41-31.11,36.84-30.33,14.25.48,28.8.99,42.76-1.28,31.05-5.05,51.85-39.17,41.44-74.73-4.47-13.65-18.25-25.48-37.96-29.8ZM1072.6,795.44c-24.86-.64-44.67,18.23-44.23,41.68.37,19.37-5.49,26.93-25.58,33.19-4.49,1.4-9.14,2.59-13.3,4.7-13.64,6.91-19.84,24.46-12.88,35.49,5.84,9.24,19.96,13.27,31.78,9.06,14.41-5.14,19.82-13.77,20.64-32.97.62-14.52,6.36-20.19,21.52-22.4,9.22-1.35,18.63-2.71,27.47-5.67,19.64-6.59,30.55-29.42,21.23-49.55-3.88-7.67-13.63-13.18-26.65-13.52ZM970.97,742.88c-25.06,4.52-39.04,28.39-31.34,52.83,6.36,20.19,2.84,29.32-15.31,40.06-4.05,2.4-8.34,4.62-11.85,7.69-11.5,10.08-12.28,29.74-1.9,39.82,8.7,8.46,24.07,9.72,34.58,2.85,12.82-8.38,15.56-18.54,10.44-38.81-3.87-15.32.12-22.45,14.59-27.93,8.8-3.33,17.8-6.72,25.71-11.66,17.61-10.99,21.45-37.16,5.91-56.27-6.25-7.21-17.71-10.95-30.83-8.59ZM868.45,720.36c-22.73,11.47-29.34,38.33-14.99,59.57,11.85,17.55,11.07,27.3-3.27,42.76-3.2,3.45-6.68,6.8-9.16,10.75-8.15,12.94-3.3,32,9.52,38.71,10.75,5.63,25.84,2.46,33.96-7.12,9.9-11.69,9.63-22.21-1.05-40.17-8.07-13.58-6.28-21.55,6.03-30.93,7.49-5.7,15.14-11.51,21.33-18.5,13.75-15.55,9.98-41.73-10.37-55.63-8.05-5.13-20.09-5.45-32,.55ZM757.26,718.42c-19.15,16.78-18.83,44.44.36,61.43,15.86,14.03,17.54,23.67,7.52,42.22-2.24,4.15-4.77,8.26-6.19,12.7-4.67,14.56,4.8,31.81,18.89,35.11,11.81,2.76,25.64-4.07,31.11-15.38,6.67-13.79,3.78-23.91-11.05-38.64-11.21-11.14-11.47-19.3-1.88-31.46,5.83-7.39,11.79-14.93,16.03-23.24,9.43-18.49-.76-42.9-23.94-51.27-9.08-2.96-20.82-.26-30.85,8.53ZM649.68,745.73c-12.66,22.09-3.38,48.15,20.29,57.98,19.55,8.12,24.28,16.69,20.82,37.5-.77,4.65-1.83,9.36-1.73,14.02.32,15.29,14.87,28.53,29.26,27.07,12.07-1.22,22.93-12.17,24.43-24.64,1.83-15.21-4.19-23.84-22.99-32.96-14.22-6.89-17.11-14.53-11.99-29.14,3.11-8.88,6.3-17.95,7.61-27.19,2.91-20.55-14.65-40.33-39.28-40.72-9.55.15-19.78,6.51-26.41,18.08ZM550.42,798.39c-5.09,24.95,11.91,46.78,37.46,48.68,21.11,1.57,28.29,8.22,31.54,29.06.73,4.65,1.2,9.46,2.76,13.85,5.1,14.42,23.07,22.42,36.28,16.52,11.08-4.95,17.95-18.76,15.46-31.07-3.03-15.01-11.46-21.32-32.18-24.07-15.66-2.08-20.81-8.42-20.54-23.9.17-9.41.35-19.02-1.31-28.2-3.69-20.42-26.57-33.69-50.08-26.33-9.02,3.14-16.73,12.39-19.4,25.46ZM473.44,866.76c1.76,25.81,24.1,42.98,49.39,38.41,20.9-3.78,29.64.95,38.38,20.62,1.95,4.39,3.7,8.99,6.39,12.92,8.81,12.88,28.39,16.22,39.62,7.09,9.41-7.66,12.37-22.96,6.66-34.43-6.97-13.99-16.84-18.07-37.67-15.55-15.75,1.9-22.44-3.04-26.33-18.32-2.36-9.29-4.76-18.78-8.83-27.39-9.05-19.15-34.8-26.41-55.63-13.26-7.9,5.36-12.9,16.4-11.98,29.91ZM412.75,949.26c8.02,24.3,33.43,36.08,56.29,26.48,18.89-7.94,28.34-5.23,41.47,11.75,2.93,3.79,5.73,7.83,9.24,11.03,11.53,10.49,30.92,9.62,39.32-1.43,7.04-9.27,6.08-24.51-2.16-34.29-10.05-11.93-20.41-13.78-39.55-7.06-14.47,5.08-22.03,1.75-29.48-12.05-4.53-8.39-9.14-16.97-15.12-24.35-13.3-16.42-39.51-18.04-56.02-1.15-6.18,6.76-8.2,18.34-4,31.07ZM1144.11,1343.84c6.44-21.22-9.51-42.98-31.98-47.48-10.1-2.02-20.54-2.37-30.77-2.73-16.82-.59-24.06-5.67-27.37-20.18-4.37-19.2-11.79-27.29-28.33-30.9-13.56-2.96-28.12,2.61-32.77,12.53-5.54,11.83,4.36,28.79,20.38,34.26,4.88,1.67,10.14,2.37,15.25,3.29,22.88,4.12,30.6,11.08,33.71,30.58,3.77,23.61,28.65,40.41,55.45,37.09,14.04-1.74,23.59-8.33,26.4-16.46ZM1072.96,1404.9c9.5-22.73-2.72-47.25-23.91-53.34-9.53-2.74-19.64-3.68-29.54-4.61-16.29-1.54-22.57-7.45-23.58-23.41-1.33-21.11-7.33-30.31-22.88-35.11-12.75-3.94-27.78,1.34-33.81,11.87-7.2,12.56-.14,31.54,14.63,38.34,4.5,2.07,9.51,3.12,14.35,4.39,21.66,5.7,28.11,13.68,28.17,35.05.08,25.87,21.74,45.48,48.35,43.29,13.93-1.14,24.24-7.8,28.22-16.48ZM972.42,1460.77c16.05-18.69,12.57-45.27-5.1-57.06-7.95-5.3-17.01-9.08-25.88-12.79-14.59-6.11-18.51-13.46-14.35-28.78,5.5-20.26,2.89-30.63-9.97-39.6-10.55-7.35-26.15-6.68-35.1,1.51-10.67,9.77-10.2,29.66,1.3,40.29,3.51,3.24,7.81,5.65,11.89,8.24,18.23,11.56,21.65,20.92,14.89,41.06-8.19,24.38,5.61,49.04,30.94,54.59,13.27,2.91,24.93-.42,31.38-7.45ZM864.56,1487.45c20.96-14.26,24.97-41.06,10.94-56.96-6.31-7.15-14.14-13.09-21.8-18.91-12.59-9.58-14.39-17.74-6.03-31.66,11.06-18.41,11.39-29.18,1.29-41.13-8.29-9.8-23.76-13.01-34.83-7.24-13.2,6.89-18.28,26.42-9.98,39.65,2.53,4.03,6.08,7.46,9.35,10.99,14.64,15.81,15.38,25.8,3.13,43.78-14.84,21.77-8.2,49.26,15.08,60.97,12.19,6.13,24.56,5.79,32.85.52ZM748.5,1490.02c23.86-6.16,36.13-30.2,28.31-50.22-3.52-9-8.82-17.39-14-25.61-8.52-13.52-7.56-21.9,4.59-32.17,16.07-13.58,19.83-23.69,14.36-38.59-4.49-12.21-17.7-20.71-29.74-19.11-14.35,1.9-25.28,18.65-21.88,34.12,1.04,4.72,3.21,9.22,5.09,13.72,8.41,20.15,5.9,29.89-11.14,42.65-20.62,15.44-23.32,43.87-5.65,63.16,9.26,10.11,20.75,14.13,30.07,12.04ZM638.04,1463.87c25.58-.53,43.73-20.94,40.61-42.04-1.4-9.49-4.76-18.79-8.03-27.91-5.38-14.99-2.41-22.85,12.32-30.01,19.49-9.46,25.7-18.36,23.73-33.98-1.62-12.81-12.95-24.01-25.49-25.21-14.96-1.43-30.01,12.25-30.27,27.97-.08,4.79,1.04,9.63,1.86,14.4,3.69,21.37-1.18,30.19-21.45,38.64-24.53,10.22-34.05,37.05-20.8,59.69,6.94,11.86,17.6,18.35,27.51,18.46ZM538.31,1412.99c24.72,7.27,48.24-6.48,51.55-27.35,1.49-9.38,1.04-19.18.62-28.77-.69-15.78,4.51-22.3,20.79-24.57,21.54-3.01,30.16-9.53,32.93-24.86,2.27-12.58-5.26-26.59-16.95-31.52-13.94-5.89-32.47,2.45-37.41,17.2-1.51,4.5-1.88,9.4-2.51,14.15-2.84,21.28-10.15,28.13-32.13,29.95-26.61,2.2-43.76,24.62-37.8,50.01,3.12,13.3,11.42,22.66,20.91,25.77ZM453.11,1338.18c20.53,14.04,46.98,7.35,57.05-11.95,4.52-8.68,7.39-18.31,10.22-27.73,4.64-15.5,11.66-20.35,27.55-17.96,21.02,3.17,31.21-.71,38.92-14.8,6.32-11.56,4.02-27.27-5.18-35.36-10.97-9.65-30.99-6.8-40.52,6.11-2.91,3.94-4.89,8.58-7.07,13.02-9.77,19.83-18.86,24.41-39.88,19.96-25.45-5.39-48.9,11.51-51.87,37.82-1.55,13.78,3.01,25.2,10.78,30.9ZM396.24,1244.66c16.65,18.8,44.19,18.77,58.79,2.36,6.56-7.38,11.74-16.1,16.82-24.63,8.36-14.03,16.42-17.05,31.39-10.79,19.8,8.28,30.73,6.99,41.75-4.9,9.03-9.76,10.64-25.71,3.63-35.9-8.37-12.15-28.67-14.29-41.17-4-3.81,3.14-6.9,7.2-10.13,11-14.44,17.01-24.46,19.26-43.96,9.71-23.59-11.55-50.7-.78-60.08,24.24-4.91,13.11-3.25,25.41,2.96,32.91ZM366.47,1137.82c11.37,23.33,38.18,31.22,56.59,19.22,8.28-5.39,15.55-12.51,22.69-19.46,11.73-11.44,20.35-12.1,33.31-1.62,17.14,13.86,28.1,15.73,41.88,7.16,11.29-7.03,16.96-22.3,12.74-34.37-5.02-14.39-24.22-22.34-39.03-15.78-4.51,2-8.56,5.12-12.68,7.94-18.42,12.63-28.74,11.96-45.26-3.05-19.99-18.18-49.13-15.35-64.67,6.65-8.14,11.52-9.68,24.14-5.57,33.31ZM370.5,1029.63c5.04,25.46,28.95,39.93,49.81,33.03,9.38-3.1,18.23-8.12,26.9-13.03,14.26-8.06,22.77-6.51,32.62,6.93,13.03,17.77,23.16,22.38,38.66,17.61,12.71-3.91,22.08-17.23,21.09-29.98-1.19-15.2-17.72-27.78-33.71-25.22-4.87.78-9.58,2.76-14.28,4.44-21.03,7.51-30.85,4.23-42.98-14.5-14.69-22.68-43.59-27.37-64.23-10.08-10.81,9.06-15.52,20.87-13.88,30.79ZM235.37,1518.25c38.46,19.74,80.29,6.76,90.99-24.16,4.81-13.9,6.57-29.12,8.32-44,2.88-24.49,13.02-32.71,40.14-30.56,35.88,2.84,51.59-4.18,60.01-26.8,6.9-18.54-1.81-42.69-19.61-54.32-21.22-13.88-53.56-7.49-65.36,13.47-3.6,6.39-5.45,13.8-7.69,20.88-10.04,31.72-23.7,39.72-60,34.89-43.94-5.85-77.6,22.67-74.33,63.76,1.71,21.52,12.85,38.78,27.53,46.85ZM369.88,1639.47c39.5,9.63,75.25-12.64,78.6-44.57,1.51-14.35-.06-29.23-1.57-43.8-2.48-23.96,5.12-34.18,30.51-38.58,33.58-5.82,46.57-16.23,49.56-39.72,2.46-19.26-10.62-40.14-29.42-46.97-22.42-8.15-50.82,5.6-57.28,28.32-1.97,6.93-2.12,14.4-2.7,21.67-2.59,32.53-13.47,43.38-47.86,47.4-41.63,4.87-66.6,39.97-54.98,78.25,6.09,20.05,19.95,33.81,35.14,37.99ZM534.7,1719.56c39.31.29,68.04-29.63,64.14-61.51-1.75-14.33-6.52-28.47-11.16-42.31-7.63-22.77-2.74-34.48,20.19-44.61,30.32-13.4,40.24-26.53,37.87-50.1-1.94-19.34-18.86-36.67-38.07-39-22.91-2.78-46.6,17.15-47.66,40.78-.32,7.2,1.19,14.52,2.25,21.74,4.76,32.29-3.09,45.37-34.57,57.2-38.11,14.33-53.86,54.27-34.46,88.89,10.16,18.13,26.25,28.35,41.47,28.93ZM723.31,1758.92c38.61-12.19,57.75-48.95,44.33-77.17-6.03-12.69-14.96-24.24-23.68-35.56-14.34-18.62-13.07-30.99,6.35-47.62,25.68-22,31.45-37.27,22.03-58.3-7.73-17.25-29.53-27.9-49.05-23.97-23.29,4.69-40.5,30.62-34.42,52.79,1.85,6.76,5.54,13.04,8.75,19.37,14.38,28.33,10.63,42.9-16.65,63.81-33.03,25.32-36.43,67.22-7,93.06,15.42,13.53,34.26,17.88,49.35,13.59ZM916.6,1752.68c33.17-22.63,40.66-63.27,19.66-86.49-9.44-10.44-21.3-18.97-32.9-27.35-19.07-13.77-21.47-25.98-7.85-47.42,18.01-28.36,19.05-44.62,3.95-62.1-12.38-14.33-36.23-18.35-53.66-9.04-20.78,11.1-29.59,40.82-17.35,60.33,3.73,5.95,9.07,10.92,13.98,16.07,21.95,23.06,22.63,38.07,2.77,65.85-24.04,33.62-15.05,74.73,20.49,91.13,18.61,8.59,37.8,7.4,50.91-.99ZM1103.26,1698.15c24.82-32.41,19.58-73.65-7.57-88.97-12.21-6.89-26.15-11.17-39.79-15.38-22.43-6.93-28.45-17.8-21.96-42.7,8.58-32.94,4.61-48.8-15.16-60.56-16.21-9.64-40.23-5.7-54.06,8.86-16.49,17.37-15.85,48.61,1.81,63.24,5.38,4.46,12,7.47,18.26,10.78,28.01,14.85,33.24,28.96,22.73,61.95-12.73,39.93,8.39,76.23,47.37,80.3,20.41,2.13,38.4-5.26,48.37-17.54ZM1257.19,1609.51c14.55-35.92-1.63-72.77-31.4-80.4-13.39-3.43-27.69-4.04-41.69-4.65-23.03-1.01-31.66-9.61-32.34-34.19-.9-32.5-8.97-46.21-30.8-52.33-17.9-5.02-39.47,4.4-48.53,21.18-10.8,20.02-1.68,48.74,18.95,58.01,6.29,2.83,13.35,4.02,20.15,5.58,30.45,6.99,39.23,18.78,38.31,51.79-1.11,39.96,28.7,68.44,66.54,62.83,19.82-2.93,34.76-14.09,40.8-27.83ZM1383.77,1504.03c8.69-35.79-14.4-68.93-46.38-72.76-14.38-1.72-29.21-.65-43.73.38-23.88,1.69-34.27-5.49-39.27-28.75-6.61-30.77-17.31-42.86-40.86-46.16-19.31-2.7-39.86,8.72-46.25,25.7-7.62,20.25,6.79,46.48,29.65,52.92,6.97,1.96,14.44,2.28,21.72,2.98,32.57,3.14,43.66,13.33,48.5,44.79,5.85,38.08,41.51,61.7,79.49,52.03,19.89-5.07,33.31-17.38,37.13-31.13Z"/>
</svg>