<?xml version="1.0" encoding="UTF-8"?>
<svg id="Camada_1" data-name="Camada 1" xmlns="http://www.w3.org/2000/svg" xmlns:xlink="http://www.w3.org/1999/xlink" viewBox="0 0 3833.14 2146.29">
  <defs>
    <style>
      .cls-1 {
        letter-spacing: -.11em;
      }

      .cls-2 {
        fill: url(#Gradiente_sem_nome_52);
        stroke-width: 0px;
      }

      .cls-3 {
        letter-spacing: -.07em;
      }

      .cls-4 {
        letter-spacing: -.02em;
      }

      .cls-5 {
        fill: #36388a;
        font-size: 156.12px;
      }

      .cls-5, .cls-6 {
        font-family: ArialMT, Arial;
      }

      .cls-7 {
        letter-spacing: 0em;
      }

      .cls-6 {
        fill: #215286;
        font-size: 458.63px;
        stroke: #235286;
        stroke-miterlimit: 10;
        stroke-width: 2px;
      }
    </style>
    <linearGradient id="Gradiente_sem_nome_52" data-name="Gradiente sem nome 52" x1="762.92" y1="660.28" x2="768.34" y2="1972.25" gradientUnits="userSpaceOnUse">
      <stop offset=".07" stop-color="#2f4495"/>
      <stop offset=".17" stop-color="#2f4495" stop-opacity=".9"/>
      <stop offset=".29" stop-color="#2f4495" stop-opacity=".83"/>
      <stop offset=".42" stop-color="#2f4495" stop-opacity=".8"/>
      <stop offset=".47" stop-color="#2f4495" stop-opacity=".72"/>
      <stop offset=".6" stop-color="#2f4495" stop-opacity=".56"/>
      <stop offset=".69" stop-color="#2f4495" stop-opacity=".5"/>
      <stop offset="1" stop-color="#2f4495" stop-opacity=".2"/>
    </linearGradient>
  </defs>
  <text class="cls-5" transform="translate(1442.19 1363.58) scale(1.32 1)"><tspan x="0" y="0">Operations &amp;</tspan><tspan class="cls-4" x="911.18" y="0"> </tspan><tspan class="cls-1" x="951.73" y="0">T</tspan><tspan x="1029.79" y="0">echnology</tspan></text>
  <text class="cls-6" transform="translate(1402.18 1143.92) scale(1.08 1)"><tspan x="0" y="0">CON</tspan><tspan class="cls-3" x="1019.15" y="0">A</tspan><tspan class="cls-7" x="1291.02" y="0">TUS</tspan></text>
  <path class="cls-2" d="M154.78,1309.6c.44-38.39,31.94-65.91,64.85-61.53,14.8,1.97,29.33,6.87,43.57,11.65,23.42,7.86,35.62,3.29,46.53-18.92,14.44-29.37,28.2-38.83,52.55-36.09,19.97,2.24,37.58,19.08,39.63,37.87,2.45,22.42-18.63,45.2-43.09,45.81-7.46.19-15-1.42-22.45-2.59-33.32-5.22-46.99,2.21-59.83,32.74-15.54,36.96-57.17,51.62-92.62,32.06-18.57-10.24-28.84-26.13-29.15-41.01ZM128.79,1184.16c29.64,27.58,73.58,23.47,97.63-8.61,19.87-26.5,34.94-30.38,65.99-17.22,6.94,2.94,13.87,6.33,21.15,7.96,23.88,5.35,49.85-11.63,52.92-33.97,2.58-18.73-10.42-39.34-29.25-46.37-22.96-8.57-38.61-2.74-59.75,22.24-15.98,18.89-28.93,20.36-49.74,7.05-12.65-8.09-25.56-16.38-39.43-21.88-30.86-12.24-68.1,6.81-77.85,43.94-3.31,14.5,2.79,32.41,18.32,46.86ZM129.62,1004.18c20.41,34.97,63.66,43.72,95.96,19.97,26.68-19.63,42.23-18.99,68.15,2.58,5.79,4.82,11.45,10.07,17.94,13.73,21.31,12.02,51.09,3.27,60.48-17.23,7.88-17.19,1.39-40.67-14.6-52.84-19.5-14.84-36.17-13.78-63.62,4.03-20.76,13.47-33.58,11.13-49.65-7.62-9.77-11.4-19.74-23.07-31.43-32.34-26.01-20.63-67.16-13.16-87.23,19.57-7.36,12.93-6.69,31.84,4,50.15ZM176.33,836.49c10.31,39.12,50.2,57.04,88.34,40.31,31.51-13.82,46.54-9.88,65.95,17.09,4.34,6.02,8.42,12.45,13.76,17.48,17.53,16.49,49.06,14.14,63.91-4.24,12.45-15.41,12.59-40.14.3-55.64-14.98-18.91-31.57-21.41-63.34-9.55-24.02,8.96-35.91,3.91-46.46-18.16-6.41-13.42-12.93-27.14-21.81-38.85-19.74-26.06-62.06-27.4-90.72.86-10.77,11.29-15.34,30.22-9.94,50.71ZM277.94,694.42c.36,39,33.44,65.11,73.12,58.4,32.78-5.54,45.91,1.67,57.67,31.44,2.63,6.65,4.92,13.62,8.73,19.57,12.49,19.53,42.57,24.72,60.83,11.01,15.31-11.5,21.31-34.59,13.5-51.97-9.53-21.19-24.47-27.42-57.02-23.78-24.61,2.75-34.54-4.76-39.17-27.87-2.81-14.05-5.66-28.41-11.19-41.45-12.29-29-51.58-40.17-85.12-20.45-12.76,8.03-21.53,24.67-21.34,45.1ZM417.73,568.29c-13.94,35.19,8.8,68.44,50.02,74.12,34.05,4.69,44.24,15.05,44.81,45.3.13,6.76-.18,13.7,1.36,20.18,5.04,21.26,32.52,34.8,55.39,27.86,19.17-5.82,33.5-24.83,32.23-42.77-1.54-21.88-13.85-31.89-46.99-38.22-25.05-4.79-32-14.48-28.05-36.64,2.4-13.47,4.88-27.23,4.26-40.59-1.38-29.71-35.66-51.36-75.65-43.52-15.41,3.46-30.08,15.84-37.38,34.27ZM591.51,483.66c-23.6,28.56-12.41,66.37,24.31,84.06,30.33,14.61,36.71,27.33,28.13,55.67-1.92,6.33-4.3,12.7-4.82,19.2-1.7,21.31,19.83,42.19,43.24,42.62,19.63.35,38.71-13.03,42.93-30.11,5.15-20.83-3.31-33.86-32.29-49.73-21.91-12-25.47-23.11-15.12-42.55,6.3-11.82,12.75-23.88,16.2-36.51,7.66-28.08-17.78-58.55-57.42-63.3-15.4-1.42-32.81,5.69-45.17,20.65ZM768.09,437.55c-31.42,22.09-30.05,62.83,2.48,90.45,26.87,22.81,29.98,37.22,13.83,63.16-3.61,5.79-7.7,11.5-9.93,17.84-7.34,20.79,8.97,47.47,32.57,54.24,19.79,5.68,42.63-2.49,51.41-18.38,10.7-19.38,5.57-34.67-19.6-58.37-19.03-17.92-19.71-29.97-4.1-46.55,9.49-10.08,19.21-20.36,26.02-32.02,15.16-25.92-2.58-63.23-41.48-78.72-15.23-5.59-34.73-3.23-51.19,8.34ZM964.23,443.33c-35.93,11.46-48.55,49.83-28.53,84.99,16.54,29.05,14.44,43.38-8.98,62.86-5.23,4.35-10.87,8.48-15.05,13.74-13.71,17.25-8.04,46.83,11,59.99,15.96,11.03,39.4,10.05,52.74-2.21,16.27-14.95,16.83-30.69,2.13-60.07-11.12-22.21-7.63-33.64,12.13-44.56,12.01-6.64,24.29-13.4,34.42-22.28,22.53-19.76,19.18-59.66-10.73-85.38-11.87-9.63-30.31-13.08-49.13-7.08ZM1142.83,496.16c-38.37-1.81-61.48,31.59-51.75,73.78,8.04,34.86,1.97,48.29-26.42,59.02-6.34,2.4-13.02,4.42-18.58,8.1-18.25,12.07-20.99,43.48-6.06,63.49,12.52,16.79,35.73,24.41,52.23,17.14,20.12-8.86,25.07-24.25,18.93-58.76-4.65-26.1,1.97-36.14,24.36-39.72,13.61-2.18,27.53-4.37,39.93-9.47,27.58-11.33,35.5-52.11,13.44-88.56-8.91-13.9-25.99-24.08-46.08-25.03ZM1303.61,602.25c-37.59-8.25-71.14,16.76-74.81,55.13-3.04,31.69-13.32,42.32-44.95,46.7-7.06.98-14.35,1.58-21.04,3.81-21.97,7.32-34.64,34.14-26.12,54.13,7.14,16.77,27.82,27.43,46.52,23.98,22.81-4.2,32.61-16.71,37.42-47.78,3.63-23.49,13.39-31.07,36.8-30.29,14.23.48,28.76.99,42.71-1.28,31.01-5.05,51.79-39.12,41.39-74.64-4.47-13.63-18.23-25.45-37.91-29.77ZM1108.95,778.36c-24.83-.64-44.62,18.2-44.17,41.62.37,19.35-5.48,26.9-25.54,33.15-4.48,1.4-9.13,2.59-13.28,4.7-13.62,6.9-19.82,24.43-12.86,35.45,5.83,9.23,19.94,13.25,31.74,9.05,14.39-5.13,19.79-13.76,20.61-32.93.62-14.5,6.35-20.16,21.5-22.37,9.21-1.35,18.61-2.71,27.43-5.66,19.62-6.58,30.51-29.39,21.2-49.49-3.88-7.66-13.61-13.17-26.62-13.5ZM1007.44,725.87c-25.03,4.51-38.99,28.35-31.3,52.77,6.35,20.17,2.84,29.29-15.29,40.01-4.05,2.4-8.33,4.62-11.83,7.68-11.49,10.06-12.26,29.7-1.9,39.77,8.69,8.45,24.04,9.71,34.54,2.85,12.81-8.37,15.54-18.52,10.43-38.76-3.86-15.3.12-22.42,14.58-27.9,8.79-3.33,17.77-6.71,25.68-11.65,17.58-10.98,21.42-37.11,5.9-56.21-6.25-7.21-17.69-10.94-30.8-8.58ZM905.04,703.37c-22.71,11.45-29.3,38.28-14.97,59.5,11.83,17.52,11.06,27.27-3.26,42.71-3.2,3.45-6.67,6.8-9.15,10.74-8.15,12.92-3.3,31.96,9.51,38.67,10.74,5.62,25.81,2.46,33.92-7.11,9.89-11.67,9.62-22.18-1.05-40.12-8.06-13.57-6.27-21.53,6.03-30.89,7.48-5.69,15.13-11.5,21.3-18.48,13.73-15.53,9.96-41.68-10.36-55.56-8.04-5.13-20.07-5.45-31.96.55ZM793.99,701.44c-19.13,16.76-18.81,44.39.36,61.35,15.84,14.01,17.52,23.64,7.51,42.17-2.24,4.14-4.76,8.25-6.18,12.68-4.66,14.54,4.79,31.77,18.87,35.07,11.8,2.76,25.61-4.06,31.07-15.36,6.66-13.77,3.77-23.88-11.04-38.59-11.2-11.12-11.45-19.28-1.88-31.42,5.82-7.38,11.78-14.91,16.01-23.21,9.41-18.47-.76-42.84-23.91-51.21-9.07-2.96-20.79-.26-30.81,8.52ZM686.54,728.72c-12.65,22.06-3.38,48.09,20.26,57.91,19.53,8.11,24.25,16.67,20.79,37.45-.77,4.64-1.83,9.35-1.73,14,.31,15.27,14.85,28.5,29.23,27.04,12.06-1.22,22.9-12.16,24.4-24.61,1.83-15.19-4.18-23.81-22.97-32.92-14.2-6.88-17.09-14.51-11.98-29.11,3.11-8.87,6.3-17.93,7.6-27.15,2.91-20.52-14.63-40.28-39.24-40.67-9.53.15-19.75,6.5-26.38,18.06ZM587.41,781.31c-5.08,24.92,11.89,46.72,37.42,48.62,21.09,1.57,28.25,8.21,31.5,29.03.73,4.65,1.2,9.45,2.75,13.84,5.09,14.4,23.05,22.39,36.24,16.5,11.06-4.94,17.92-18.73,15.44-31.03-3.03-15-11.45-21.29-32.14-24.04-15.64-2.08-20.78-8.41-20.51-23.87.16-9.4.35-19-1.31-28.17-3.68-20.4-26.54-33.65-50.02-26.3-9.01,3.13-16.71,12.38-19.37,25.43ZM510.51,849.6c1.76,25.78,24.07,42.93,49.33,38.36,20.87-3.77,29.6.95,38.34,20.59,1.95,4.39,3.7,8.98,6.38,12.91,8.8,12.87,28.36,16.2,39.57,7.08,9.4-7.65,12.36-22.93,6.65-34.39-6.96-13.98-16.82-18.04-37.62-15.53-15.73,1.9-22.41-3.03-26.3-18.29-2.36-9.28-4.76-18.76-8.82-27.36-9.04-19.12-34.76-26.38-55.57-13.24-7.89,5.35-12.89,16.38-11.97,29.88ZM449.9,931.99c8.01,24.27,33.39,36.04,56.22,26.44,18.86-7.93,28.31-5.22,41.42,11.74,2.93,3.79,5.72,7.82,9.23,11.01,11.51,10.48,30.88,9.61,39.27-1.43,7.04-9.26,6.08-24.48-2.16-34.25-10.04-11.92-20.39-13.76-39.5-7.05-14.45,5.07-22,1.74-29.44-12.04-4.52-8.38-9.13-16.94-15.1-24.32-13.28-16.4-39.46-18.01-55.95-1.15-6.17,6.75-8.19,18.32-4,31.03ZM1180.37,1326.09c6.43-21.2-9.5-42.93-31.94-47.42-10.09-2.02-20.52-2.37-30.73-2.73-16.8-.59-24.03-5.66-27.33-20.16-4.37-19.18-11.78-27.26-28.29-30.86-13.54-2.95-28.09,2.61-32.73,12.52-5.54,11.81,4.36,28.75,20.36,34.22,4.88,1.67,10.13,2.36,15.23,3.28,22.86,4.11,30.56,11.07,33.67,30.54,3.77,23.58,28.61,40.36,55.38,37.04,14.02-1.74,23.56-8.32,26.37-16.44ZM1109.3,1387.08c9.49-22.71-2.71-47.19-23.88-53.27-9.52-2.74-19.62-3.67-29.51-4.61-16.27-1.54-22.54-7.44-23.55-23.38-1.33-21.08-7.32-30.27-22.85-35.07-12.74-3.93-27.75,1.34-33.77,11.86-7.19,12.55-.14,31.5,14.61,38.3,4.5,2.07,9.5,3.11,14.33,4.38,21.63,5.7,28.07,13.67,28.14,35.01.08,25.84,21.71,45.42,48.29,43.24,13.92-1.14,24.21-7.79,28.18-16.46ZM1008.89,1442.89c16.03-18.67,12.55-45.21-5.1-56.99-7.94-5.3-16.99-9.07-25.85-12.77-14.57-6.1-18.49-13.45-14.34-28.74,5.5-20.23,2.89-30.59-9.96-39.55-10.54-7.34-26.11-6.67-35.05,1.51-10.66,9.76-10.18,29.62,1.3,40.24,3.5,3.24,7.8,5.65,11.87,8.23,18.21,11.55,21.63,20.89,14.87,41.01-8.18,24.35,5.6,48.98,30.9,54.52,13.25,2.9,24.9-.42,31.35-7.44ZM901.16,1469.53c20.93-14.24,24.94-41.01,10.92-56.89-6.3-7.14-14.12-13.07-21.77-18.89-12.58-9.57-14.37-17.72-6.02-31.62,11.04-18.39,11.38-29.15,1.29-41.08-8.28-9.79-23.74-13-34.79-7.23-13.18,6.88-18.26,26.38-9.96,39.6,2.53,4.03,6.07,7.45,9.34,10.98,14.62,15.79,15.36,25.76,3.12,43.72-14.82,21.74-8.19,49.2,15.06,60.89,12.18,6.12,24.53,5.78,32.81.52ZM785.24,1472.09c23.83-6.16,36.08-30.16,28.27-50.16-3.51-8.99-8.81-17.37-13.99-25.58-8.51-13.51-7.55-21.87,4.58-32.13,16.05-13.57,19.81-23.66,14.34-38.54-4.48-12.2-17.68-20.68-29.7-19.09-14.33,1.9-25.25,18.62-21.85,34.08,1.04,4.71,3.2,9.21,5.08,13.7,8.4,20.13,5.89,29.86-11.13,42.6-20.6,15.42-23.29,43.81-5.64,63.09,9.25,10.09,20.72,14.11,30.03,12.03ZM674.92,1445.98c25.55-.53,43.68-20.91,40.56-41.99-1.4-9.48-4.76-18.77-8.02-27.87-5.38-14.97-2.41-22.83,12.31-29.97,19.46-9.45,25.67-18.34,23.7-33.94-1.62-12.79-12.93-23.98-25.46-25.18-14.94-1.43-29.97,12.24-30.23,27.93-.08,4.78,1.04,9.61,1.86,14.38,3.68,21.34-1.18,30.16-21.42,38.59-24.51,10.21-34.01,37-20.77,59.62,6.93,11.85,17.58,18.33,27.48,18.43ZM575.31,1395.16c24.69,7.26,48.19-6.48,51.49-27.31,1.48-9.37,1.04-19.15.62-28.73-.69-15.76,4.5-22.27,20.77-24.54,21.51-3.01,30.13-9.51,32.89-24.83,2.27-12.56-5.25-26.55-16.93-31.48-13.92-5.88-32.44,2.45-37.37,17.18-1.5,4.49-1.87,9.39-2.51,14.14-2.84,21.25-10.14,28.1-32.09,29.91-26.58,2.19-43.71,24.59-37.75,49.95,3.12,13.28,11.4,22.63,20.88,25.73ZM490.21,1320.44c20.5,14.02,46.93,7.34,56.98-11.93,4.52-8.67,7.38-18.28,10.2-27.69,4.64-15.48,11.65-20.32,27.51-17.93,20.99,3.16,31.17-.71,38.88-14.79,6.32-11.54,4.02-27.24-5.17-35.32-10.96-9.64-30.95-6.79-40.47,6.1-2.9,3.93-4.89,8.57-7.07,13-9.76,19.81-18.83,24.38-39.83,19.93-25.42-5.39-48.84,11.49-51.8,37.77-1.55,13.76,3.01,25.17,10.77,30.86ZM433.41,1227.04c16.63,18.78,44.14,18.75,58.72,2.36,6.55-7.37,11.72-16.08,16.8-24.6,8.35-14.01,16.4-17.03,31.35-10.78,19.77,8.27,30.69,6.99,41.7-4.9,9.02-9.74,10.63-25.68,3.62-35.85-8.36-12.14-28.63-14.28-41.12-4-3.81,3.13-6.89,7.19-10.11,10.99-14.42,16.99-24.43,19.23-43.9,9.7-23.57-11.54-50.64-.78-60,24.21-4.9,13.09-3.24,25.38,2.96,32.87ZM403.68,1120.32c11.36,23.3,38.13,31.18,56.52,19.2,8.27-5.39,15.53-12.49,22.66-19.44,11.72-11.42,20.33-12.09,33.27-1.62,17.11,13.84,28.07,15.71,41.82,7.15,11.28-7.02,16.93-22.27,12.73-34.32-5.02-14.37-24.19-22.31-38.98-15.76-4.51,2-8.55,5.11-12.66,7.93-18.39,12.61-28.71,11.95-45.2-3.05-19.97-18.15-49.07-15.33-64.6,6.64-8.13,11.5-9.67,24.11-5.56,33.27ZM407.71,1012.27c5.04,25.43,28.91,39.88,49.75,32.99,9.37-3.1,18.21-8.11,26.87-13.01,14.24-8.05,22.74-6.5,32.58,6.92,13.02,17.75,23.13,22.36,38.61,17.59,12.7-3.91,22.06-17.21,21.06-29.94-1.18-15.18-17.7-27.75-33.67-25.19-4.87.78-9.57,2.76-14.27,4.44-21,7.5-30.81,4.23-42.93-14.48-14.67-22.65-43.53-27.34-64.15-10.07-10.8,9.05-15.5,20.84-13.87,30.75ZM272.73,1500.29c38.41,19.72,80.19,6.75,90.88-24.13,4.8-13.89,6.56-29.08,8.31-43.95,2.88-24.46,13-32.67,40.09-30.53,35.83,2.83,51.53-4.18,59.93-26.77,6.89-18.52-1.81-42.64-19.58-54.26-21.2-13.86-53.5-7.48-65.28,13.46-3.59,6.38-5.44,13.78-7.68,20.86-10.03,31.68-23.67,39.67-59.92,34.85-43.88-5.84-77.5,22.64-74.24,63.68,1.71,21.5,12.83,38.73,27.49,46.79ZM407.08,1621.36c39.45,9.62,75.16-12.63,78.51-44.51,1.51-14.34-.06-29.2-1.57-43.74-2.48-23.93,5.11-34.14,30.47-38.53,33.54-5.82,46.51-16.21,49.5-39.67,2.45-19.24-10.6-40.09-29.38-46.92-22.4-8.14-50.76,5.6-57.21,28.29-1.97,6.92-2.12,14.39-2.69,21.65-2.58,32.49-13.45,43.33-47.8,47.35-41.58,4.87-66.52,39.92-54.92,78.15,6.08,20.02,19.92,33.77,35.09,37.94ZM571.7,1701.36c39.26.29,67.95-29.6,64.06-61.43-1.75-14.32-6.51-28.43-11.14-42.26-7.62-22.75-2.73-34.44,20.16-44.56,30.29-13.39,40.2-26.49,37.83-50.04-1.94-19.31-18.84-36.62-38.03-38.95-22.88-2.78-46.54,17.13-47.6,40.73-.32,7.19,1.19,14.51,2.25,21.71,4.75,32.25-3.09,45.31-34.53,57.13-38.06,14.31-53.79,54.2-34.42,88.79,10.15,18.11,26.21,28.32,41.42,28.9ZM760.08,1740.67c38.56-12.18,57.68-48.89,44.27-77.08-6.03-12.67-14.94-24.21-23.65-35.52-14.32-18.6-13.05-30.95,6.34-47.56,25.65-21.97,31.41-37.22,22-58.23-7.72-17.23-29.49-27.87-48.99-23.94-23.26,4.69-40.45,30.59-34.38,52.72,1.85,6.75,5.53,13.03,8.74,19.35,14.37,28.3,10.62,42.85-16.63,63.74-32.99,25.29-36.39,67.14-6.99,92.95,15.4,13.52,34.22,17.85,49.29,13.57ZM953.14,1734.44c33.13-22.6,40.61-63.19,19.64-86.39-9.43-10.43-21.28-18.95-32.86-27.31-19.05-13.76-21.44-25.95-7.84-47.36,17.99-28.32,19.02-44.57,3.94-62.02-12.37-14.31-36.18-18.33-53.59-9.03-20.76,11.09-29.56,40.77-17.33,60.26,3.73,5.94,9.06,10.91,13.96,16.05,21.92,23.03,22.6,38.03,2.77,65.77-24.01,33.58-15.03,74.63,20.46,91.02,18.59,8.58,37.76,7.39,50.84-.98ZM1139.57,1679.97c24.79-32.38,19.56-73.56-7.56-88.86-12.2-6.88-26.12-11.15-39.74-15.36-22.4-6.92-28.41-17.77-21.93-42.65,8.57-32.9,4.6-48.74-15.14-60.48-16.19-9.63-40.18-5.69-53.99,8.85-16.47,17.35-15.83,48.55,1.8,63.16,5.38,4.45,11.99,7.46,18.24,10.77,27.98,14.83,33.2,28.93,22.7,61.87-12.71,39.88,8.38,76.14,47.31,80.21,20.39,2.13,38.35-5.25,48.31-17.52ZM1293.31,1591.45c14.53-35.88-1.63-72.68-31.36-80.31-13.37-3.43-27.66-4.03-41.64-4.65-23-1.01-31.62-9.6-32.3-34.14-.9-32.46-8.96-46.15-30.76-52.26-17.88-5.01-39.42,4.39-48.47,21.16-10.79,19.99-1.68,48.68,18.93,57.94,6.28,2.82,13.33,4.01,20.13,5.57,30.41,6.99,39.18,18.76,38.27,51.73-1.11,39.91,28.66,68.35,66.46,62.76,19.8-2.93,34.71-14.07,40.75-27.8ZM1419.74,1486.09c8.68-35.75-14.39-68.85-46.33-72.67-14.36-1.72-29.17-.65-43.68.38-23.86,1.69-34.23-5.48-39.22-28.71-6.6-30.73-17.29-42.81-40.81-46.1-19.28-2.7-39.81,8.71-46.19,25.67-7.61,20.23,6.79,46.43,29.62,52.86,6.96,1.96,14.43,2.28,21.69,2.98,32.53,3.14,43.61,13.31,48.44,44.73,5.84,38.04,41.46,61.63,79.39,51.96,19.87-5.06,33.27-17.36,37.09-31.09Z"/>
</svg>