<?xml version="1.0" encoding="UTF-8"?>
<svg id="Camada_1" data-name="Camada 1" xmlns="http://www.w3.org/2000/svg" xmlns:xlink="http://www.w3.org/1999/xlink" viewBox="0 0 3840 2160">
  <defs>
    <style>
      .cls-1 {
        letter-spacing: 0em;
      }

      .cls-2 {
        fill: url(#Gradiente_sem_nome_37);
        stroke-width: 0px;
      }

      .cls-3 {
        letter-spacing: -.07em;
      }

      .cls-4 {
        fill: #4b82c2;
        font-size: 169.75px;
      }

      .cls-4, .cls-5 {
        font-family: ArialMT, Arial;
      }

      .cls-5 {
        fill: #215286;
        font-size: 455.78px;
        stroke: #235286;
        stroke-miterlimit: 10;
        stroke-width: 2px;
      }
    </style>
    <linearGradient id="Gradiente_sem_nome_37" data-name="Gradiente sem nome 37" x1="737.72" y1="680.98" x2="743.11" y2="1984.8" gradientUnits="userSpaceOnUse">
      <stop offset=".07" stop-color="#2c71b2"/>
      <stop offset=".08" stop-color="#2c71b2" stop-opacity=".99"/>
      <stop offset=".19" stop-color="#2c71b2" stop-opacity=".88"/>
      <stop offset=".3" stop-color="#2c71b2" stop-opacity=".82"/>
      <stop offset=".42" stop-color="#2c71b2" stop-opacity=".8"/>
      <stop offset=".5" stop-color="#2c71b2" stop-opacity=".69"/>
      <stop offset=".61" stop-color="#2c71b2" stop-opacity=".55"/>
      <stop offset=".69" stop-color="#2c71b2" stop-opacity=".5"/>
      <stop offset="1" stop-color="#2c71b2" stop-opacity=".2"/>
    </linearGradient>
  </defs>
  <text class="cls-4" transform="translate(2000.12 1383.6) scale(1.32 1)"><tspan x="0" y="0">INSTITUTE</tspan></text>
  <text class="cls-5" transform="translate(1373.01 1161.61) scale(1.08 1)"><tspan x="0" y="0">CON</tspan><tspan class="cls-3" x="1012.82" y="0">A</tspan><tspan class="cls-1" x="1282.99" y="0">TUS</tspan></text>
  <path class="cls-2" d="M133.36,1326.26c.44-38.15,31.74-65.5,64.45-61.15,14.7,1.96,29.15,6.83,43.3,11.58,23.27,7.81,35.4,3.27,46.24-18.8,14.35-29.19,28.03-38.58,52.23-35.87,19.84,2.23,37.35,18.96,39.38,37.64,2.43,22.28-18.51,44.92-42.82,45.53-7.41.19-14.91-1.41-22.31-2.57-33.11-5.19-46.7,2.19-59.46,32.53-15.45,36.73-56.81,51.3-92.04,31.87-18.45-10.18-28.66-25.97-28.97-40.75ZM107.54,1201.6c29.46,27.41,73.12,23.32,97.03-8.56,19.75-26.33,34.72-30.19,65.58-17.12,6.89,2.92,13.78,6.29,21.01,7.91,23.73,5.31,49.54-11.56,52.6-33.76,2.56-18.62-10.36-39.09-29.06-46.08-22.81-8.52-38.37-2.72-59.37,22.11-15.88,18.77-28.75,20.23-49.43,7.01-12.57-8.04-25.4-16.28-39.19-21.75-30.67-12.16-67.68,6.76-77.37,43.67-3.29,14.41,2.77,32.21,18.2,46.57ZM108.36,1022.74c20.28,34.75,63.27,43.45,95.36,19.84,26.51-19.5,41.96-18.87,67.73,2.56,5.76,4.79,11.37,10,17.83,13.65,21.18,11.94,50.77,3.25,60.11-17.13,7.83-17.08,1.38-40.42-14.51-52.51-19.38-14.74-35.94-13.69-63.23,4.01-20.63,13.38-33.37,11.07-49.34-7.57-9.71-11.33-19.61-22.92-31.23-32.14-25.84-20.5-66.75-13.08-86.68,19.45-7.31,12.85-6.65,31.64,3.97,49.84ZM154.78,856.1c10.24,38.87,49.88,56.69,87.79,40.06,31.31-13.74,46.25-9.82,65.54,16.98,4.31,5.99,8.36,12.37,13.67,17.37,17.42,16.39,48.76,14.05,63.52-4.21,12.37-15.32,12.51-39.89.3-55.3-14.89-18.79-31.37-21.28-62.95-9.49-23.87,8.91-35.69,3.89-46.17-18.05-6.37-13.33-12.85-26.97-21.68-38.61-19.62-25.89-61.67-27.23-90.15.86-10.7,11.22-15.24,30.04-9.88,50.4ZM255.76,714.9c.36,38.76,33.23,64.71,72.66,58.04,32.57-5.51,45.62,1.66,57.31,31.24,2.61,6.61,4.89,13.53,8.67,19.45,12.41,19.41,42.3,24.57,60.45,10.95,15.22-11.42,21.18-34.38,13.41-51.65-9.47-21.06-24.31-27.25-56.67-23.63-24.46,2.74-34.33-4.73-38.93-27.7-2.8-13.96-5.63-28.24-11.12-41.19-12.21-28.82-51.26-39.92-84.59-20.33-12.68,7.98-21.4,24.52-21.21,44.82ZM394.67,589.56c-13.86,34.97,8.75,68.02,49.71,73.66,33.84,4.66,43.96,14.96,44.53,45.02.13,6.72-.18,13.62,1.35,20.06,5.01,21.13,32.32,34.59,55.04,27.69,19.05-5.79,33.29-24.67,32.03-42.5-1.53-21.74-13.76-31.69-46.7-37.98-24.9-4.76-31.8-14.39-27.88-36.41,2.39-13.39,4.85-27.06,4.23-40.34-1.37-29.53-35.44-51.04-75.18-43.25-15.31,3.44-29.89,15.74-37.15,34.06ZM567.37,505.45c-23.45,28.39-12.33,65.96,24.16,83.54,30.14,14.52,36.48,27.16,27.96,55.32-1.9,6.29-4.27,12.62-4.79,19.08-1.69,21.18,19.71,41.93,42.97,42.35,19.51.35,38.47-12.95,42.66-29.92,5.12-20.7-3.29-33.65-32.09-49.42-21.78-11.93-25.32-22.97-15.02-42.29,6.26-11.74,12.67-23.73,16.1-36.28,7.62-27.9-17.67-58.19-57.06-62.9-15.31-1.41-32.61,5.66-44.89,20.52ZM742.86,459.63c-31.23,21.95-29.86,62.44,2.46,89.88,26.7,22.67,29.79,36.99,13.74,62.77-3.59,5.76-7.65,11.43-9.87,17.73-7.29,20.66,8.92,47.17,32.37,53.91,19.66,5.64,42.37-2.47,51.09-18.27,10.64-19.26,5.54-34.45-19.48-58-18.91-17.81-19.59-29.78-4.07-46.26,9.43-10.02,19.09-20.23,25.86-31.82,15.06-25.76-2.56-62.84-41.22-78.23-15.13-5.56-34.51-3.21-50.87,8.29ZM937.78,465.38c-35.71,11.39-48.25,49.52-28.35,84.46,16.44,28.87,14.35,43.11-8.93,62.47-5.2,4.33-10.81,8.43-14.96,13.66-13.62,17.14-7.99,46.54,10.93,59.61,15.86,10.96,39.15,9.98,52.42-2.2,16.17-14.86,16.73-30.5,2.12-59.7-11.05-22.08-7.58-33.43,12.05-44.28,11.94-6.6,24.14-13.32,34.21-22.14,22.39-19.63,19.06-59.29-10.66-84.85-11.79-9.57-30.12-13-48.82-7.03ZM1115.28,517.88c-38.13-1.8-61.1,31.39-51.43,73.33,7.99,34.64,1.96,47.99-26.25,58.65-6.3,2.38-12.94,4.39-18.47,8.05-18.14,11.99-20.86,43.21-6.02,63.1,12.45,16.68,35.51,24.25,51.91,17.04,19.99-8.8,24.92-24.1,18.81-58.4-4.62-25.93,1.96-35.92,24.21-39.48,13.53-2.16,27.36-4.35,39.68-9.41,27.41-11.26,35.27-51.79,13.36-88.01-8.86-13.81-25.83-23.93-45.8-24.87ZM1275.05,623.31c-37.36-8.2-70.7,16.66-74.35,54.79-3.02,31.5-13.24,42.06-44.67,46.41-7.02.97-14.26,1.57-20.91,3.79-21.83,7.27-34.42,33.92-25.95,53.8,7.1,16.66,27.64,27.26,46.23,23.84,22.67-4.17,32.41-16.61,37.18-47.49,3.61-23.34,13.31-30.88,36.57-30.1,14.14.47,28.58.98,42.44-1.28,30.82-5.02,51.47-38.88,41.13-74.18-4.44-13.54-18.11-25.29-37.68-29.58ZM1081.6,798.33c-24.68-.63-44.34,18.09-43.9,41.37.37,19.23-5.45,26.73-25.39,32.94-4.45,1.39-9.07,2.57-13.2,4.67-13.54,6.86-19.7,24.28-12.78,35.23,5.8,9.18,19.82,13.17,31.54,8.99,14.3-5.1,19.67-13.67,20.48-32.73.62-14.41,6.31-20.04,21.36-22.24,9.15-1.34,18.49-2.69,27.26-5.63,19.5-6.54,30.32-29.2,21.07-49.18-3.85-7.61-13.53-13.08-26.45-13.42ZM980.73,746.16c-24.87,4.48-38.75,28.18-31.11,52.44,6.31,20.04,2.82,29.11-15.2,39.76-4.02,2.38-8.28,4.59-11.76,7.64-11.42,10-12.19,29.52-1.89,39.53,8.64,8.39,23.89,9.65,34.33,2.83,12.73-8.32,15.44-18.41,10.36-38.52-3.84-15.21.12-22.28,14.49-27.72,8.73-3.31,17.66-6.67,25.52-11.57,17.48-10.91,21.29-36.88,5.86-55.86-6.21-7.16-17.58-10.87-30.6-8.52ZM878.96,723.81c-22.57,11.38-29.12,38.05-14.88,59.13,11.76,17.42,10.99,27.1-3.24,42.45-3.18,3.43-6.63,6.75-9.1,10.67-8.09,12.84-3.27,31.76,9.45,38.43,10.67,5.59,25.65,2.45,33.71-7.07,9.83-11.6,9.56-22.04-1.04-39.87-8.01-13.48-6.24-21.39,5.99-30.7,7.43-5.66,15.03-11.42,21.17-18.36,13.64-15.43,9.9-41.42-10.29-55.21-7.99-5.1-19.95-5.41-31.76.55ZM768.6,721.88c-19.01,16.66-18.69,44.11.36,60.97,15.74,13.93,17.41,23.49,7.46,41.91-2.22,4.11-4.73,8.2-6.14,12.6-4.63,14.45,4.76,31.58,18.75,34.85,11.73,2.74,25.45-4.04,30.88-15.26,6.62-13.69,3.75-23.73-10.97-38.35-11.13-11.05-11.38-19.16-1.87-31.22,5.78-7.33,11.7-14.82,15.91-23.07,9.36-18.35-.76-42.58-23.76-50.89-9.01-2.94-20.67-.26-30.62,8.47ZM661.82,748.99c-12.57,21.93-3.36,47.79,20.13,57.55,19.41,8.06,24.1,16.57,20.67,37.22-.77,4.61-1.81,9.29-1.72,13.91.31,15.17,14.76,28.32,29.05,26.87,11.98-1.21,22.76-12.08,24.25-24.46,1.82-15.09-4.16-23.66-22.82-32.71-14.11-6.84-16.98-14.42-11.9-28.92,3.09-8.81,6.26-17.81,7.56-26.98,2.89-20.4-14.54-40.03-38.99-40.42-9.48.15-19.63,6.46-26.21,17.95ZM563.3,801.25c-5.05,24.77,11.82,46.43,37.19,48.32,20.96,1.56,28.08,8.16,31.31,28.85.72,4.62,1.19,9.39,2.74,13.75,5.06,14.31,22.9,22.25,36.01,16.39,10.99-4.91,17.81-18.62,15.34-30.84-3.01-14.9-11.38-21.16-31.94-23.89-15.55-2.07-20.65-8.36-20.38-23.72.16-9.34.35-18.88-1.3-27.99-3.66-20.27-26.37-33.44-49.71-26.13-8.95,3.11-16.61,12.3-19.25,25.27ZM486.88,869.12c1.75,25.62,23.92,42.66,49.03,38.12,20.74-3.75,29.42.95,38.1,20.46,1.94,4.36,3.68,8.93,6.34,12.83,8.75,12.79,28.18,16.1,39.32,7.04,9.34-7.6,12.28-22.79,6.61-34.18-6.92-13.89-16.71-17.93-37.39-15.43-15.63,1.89-22.27-3.01-26.13-18.18-2.35-9.22-4.73-18.64-8.77-27.19-8.99-19-34.54-26.22-55.22-13.16-7.84,5.32-12.81,16.28-11.89,29.69ZM426.65,951c7.96,24.12,33.18,35.82,55.87,26.28,18.75-7.88,28.13-5.19,41.17,11.67,2.91,3.77,5.68,7.77,9.17,10.94,11.44,10.41,30.69,9.55,39.02-1.42,6.99-9.2,6.04-24.32-2.14-34.03-9.98-11.84-20.26-13.68-39.25-7.01-14.36,5.04-21.86,1.73-29.26-11.96-4.49-8.33-9.07-16.84-15.01-24.17-13.2-16.3-39.21-17.9-55.61-1.14-6.13,6.71-8.14,18.21-3.97,30.84ZM1152.58,1342.65c6.39-21.07-9.44-42.67-31.74-47.13-10.03-2.01-20.39-2.36-30.54-2.71-16.69-.58-23.88-5.62-27.16-20.03-4.34-19.06-11.7-27.09-28.12-30.67-13.46-2.93-27.91,2.59-32.52,12.44-5.5,11.74,4.33,28.58,20.23,34.01,4.85,1.66,10.07,2.35,15.14,3.26,22.71,4.09,30.37,11,33.46,30.35,3.74,23.43,28.43,40.11,55.04,36.81,13.93-1.73,23.42-8.27,26.21-16.33ZM1081.95,1403.26c9.43-22.56-2.7-46.9-23.73-52.94-9.46-2.72-19.5-3.65-29.32-4.58-16.17-1.53-22.4-7.39-23.4-23.23-1.32-20.95-7.27-30.08-22.71-34.85-12.66-3.91-27.57,1.33-33.56,11.78-7.14,12.47-.14,31.3,14.52,38.06,4.47,2.06,9.44,3.09,14.25,4.36,21.49,5.66,27.9,13.58,27.96,34.79.08,25.68,21.58,45.14,47.99,42.97,13.83-1.13,24.06-7.74,28.01-16.36ZM982.16,1458.72c15.93-18.55,12.48-44.93-5.07-56.63-7.89-5.26-16.88-9.01-25.69-12.69-14.48-6.06-18.38-13.36-14.25-28.56,5.46-20.11,2.87-30.4-9.9-39.31-10.47-7.3-25.95-6.63-34.84,1.5-10.6,9.7-10.12,29.44,1.29,39.99,3.48,3.22,7.76,5.61,11.8,8.17,18.09,11.47,21.49,20.76,14.78,40.75-8.13,24.2,5.57,48.67,30.71,54.18,13.17,2.89,24.75-.41,31.15-7.4ZM875.1,1485.2c20.8-14.15,24.78-40.76,10.86-56.54-6.26-7.1-14.03-12.99-21.63-18.77-12.5-9.51-14.28-17.61-5.99-31.42,10.97-18.27,11.31-28.96,1.28-40.82-8.22-9.73-23.59-12.92-34.57-7.18-13.1,6.84-18.14,26.22-9.9,39.35,2.51,4,6.04,7.4,9.28,10.91,14.53,15.69,15.27,25.6,3.1,43.45-14.73,21.6-8.14,48.89,14.97,60.51,12.1,6.09,24.38,5.74,32.61.52ZM759.9,1487.75c23.68-6.12,35.86-29.97,28.1-49.85-3.49-8.94-8.76-17.26-13.9-25.42-8.46-13.42-7.51-21.73,4.55-31.93,15.95-13.48,19.68-23.52,14.25-38.3-4.46-12.12-17.57-20.55-29.52-18.97-14.24,1.89-25.1,18.51-21.72,33.87,1.03,4.68,3.18,9.15,5.05,13.62,8.35,20,5.85,29.67-11.06,42.33-20.47,15.33-23.15,43.54-5.6,62.7,9.19,10.03,20.6,14.02,29.84,11.95ZM650.27,1461.79c25.39-.52,43.41-20.78,40.31-41.73-1.39-9.42-4.73-18.65-7.97-27.7-5.34-14.88-2.39-22.68,12.23-29.78,19.34-9.39,25.51-18.23,23.55-33.73-1.61-12.71-12.85-23.83-25.3-25.02-14.85-1.42-29.79,12.16-30.04,27.76-.08,4.75,1.03,9.55,1.85,14.29,3.66,21.21-1.17,29.97-21.29,38.35-24.35,10.14-33.8,36.77-20.64,59.25,6.89,11.77,17.47,18.22,27.31,18.32ZM551.28,1411.29c24.54,7.21,47.89-6.43,51.17-27.14,1.48-9.31,1.03-19.04.61-28.56-.69-15.66,4.47-22.13,20.64-24.39,21.38-2.99,29.94-9.45,32.69-24.68,2.25-12.48-5.22-26.39-16.82-31.29-13.83-5.84-32.23,2.43-37.14,17.07-1.49,4.46-1.86,9.33-2.49,14.05-2.82,21.12-10.08,27.92-31.89,29.72-26.41,2.18-43.44,24.44-37.51,49.64,3.1,13.2,11.33,22.49,20.75,25.57ZM466.71,1337.04c20.38,13.93,46.64,7.29,56.62-11.86,4.49-8.61,7.34-18.17,10.14-27.52,4.61-15.38,11.57-20.2,27.34-17.82,20.86,3.14,30.98-.71,38.63-14.69,6.28-11.47,3.99-27.07-5.14-35.1-10.89-9.58-30.76-6.75-40.22,6.06-2.88,3.91-4.86,8.52-7.02,12.92-9.7,19.69-18.72,24.23-39.59,19.81-25.26-5.35-48.53,11.42-51.48,37.54-1.54,13.68,2.99,25.01,10.7,30.67ZM410.26,1244.21c16.53,18.66,43.87,18.63,58.35,2.34,6.51-7.33,11.65-15.98,16.69-24.44,8.3-13.92,16.3-16.92,31.15-10.71,19.65,8.22,30.5,6.94,41.44-4.87,8.97-9.68,10.56-25.52,3.6-35.63-8.31-12.06-28.45-14.19-40.86-3.97-3.78,3.11-6.85,7.15-10.05,10.92-14.33,16.88-24.28,19.11-43.63,9.64-23.42-11.47-50.33-.78-59.63,24.06-4.87,13.01-3.22,25.23,2.94,32.66ZM380.71,1138.16c11.29,23.16,37.89,30.99,56.17,19.08,8.22-5.35,15.44-12.42,22.52-19.32,11.64-11.35,20.2-12.01,33.06-1.61,17.01,13.75,27.9,15.61,41.56,7.11,11.21-6.98,16.83-22.13,12.65-34.11-4.99-14.28-24.04-22.17-38.74-15.66-4.48,1.98-8.5,5.08-12.58,7.88-18.28,12.53-28.53,11.87-44.92-3.03-19.84-18.04-48.76-15.23-64.19,6.6-8.08,11.43-9.61,23.96-5.52,33.06ZM384.72,1030.78c5,25.27,28.73,39.63,49.44,32.78,9.31-3.08,18.1-8.06,26.7-12.93,14.16-8,22.6-6.46,32.38,6.88,12.94,17.64,22.99,22.22,38.37,17.48,12.62-3.88,21.92-17.11,20.93-29.75-1.18-15.08-17.59-27.57-33.46-25.03-4.84.77-9.51,2.74-14.18,4.41-20.87,7.45-30.62,4.2-42.66-14.39-14.58-22.51-43.26-27.17-63.75-10-10.73,8.99-15.41,20.71-13.78,30.56ZM250.58,1515.77c38.17,19.59,79.7,6.71,90.31-23.98,4.77-13.8,6.52-28.9,8.26-43.68,2.86-24.31,12.92-32.46,39.84-30.34,35.61,2.81,51.21-4.15,59.56-26.6,6.85-18.41-1.8-42.37-19.46-53.92-21.06-13.78-53.16-7.43-64.88,13.37-3.57,6.34-5.41,13.69-7.63,20.73-9.97,31.48-23.53,39.43-59.55,34.63-43.61-5.81-77.02,22.5-73.78,63.29,1.7,21.36,12.75,38.49,27.32,46.5ZM384.09,1636.09c39.21,9.56,74.69-12.55,78.02-44.24,1.5-14.25-.06-29.02-1.56-43.47-2.46-23.78,5.08-33.92,30.28-38.29,33.34-5.78,46.22-16.11,49.19-39.42,2.44-19.12-10.54-39.84-29.2-46.63-22.26-8.09-50.45,5.56-56.86,28.11-1.95,6.88-2.1,14.3-2.68,21.51-2.57,32.29-13.37,43.06-47.5,47.05-41.32,4.84-66.11,39.67-54.57,77.67,6.04,19.9,19.8,33.56,34.87,37.71ZM547.69,1715.58c39.02.29,67.53-29.41,63.66-61.05-1.74-14.23-6.47-28.26-11.07-42-7.57-22.61-2.72-34.22,20.04-44.28,30.1-13.3,39.95-26.33,37.59-49.73-1.93-19.19-18.72-36.4-37.79-38.71-22.74-2.76-46.25,17.02-47.3,40.47-.32,7.15,1.18,14.42,2.24,21.58,4.72,32.05-3.07,45.03-34.31,56.78-37.82,14.22-53.46,53.87-34.2,88.23,10.08,18,26.05,28.14,41.16,28.72ZM734.9,1754.65c38.32-12.1,57.32-48.59,44-76.6-5.99-12.59-14.85-24.06-23.5-35.3-14.23-18.49-12.97-30.76,6.3-47.27,25.49-21.83,31.22-36.99,21.86-57.87-7.67-17.12-29.31-27.69-48.69-23.79-23.11,4.66-40.2,30.4-34.17,52.4,1.84,6.71,5.5,12.95,8.69,19.23,14.28,28.12,10.55,42.58-16.53,63.34-32.78,25.13-36.16,66.72-6.95,92.37,15.3,13.43,34,17.74,48.98,13.48ZM926.76,1748.46c32.93-22.46,40.36-62.8,19.51-85.85-9.37-10.36-21.14-18.83-32.65-27.14-18.93-13.67-21.31-25.78-7.79-47.06,17.88-28.15,18.91-44.29,3.92-61.64-12.29-14.22-35.96-18.21-53.26-8.97-20.63,11.02-29.37,40.52-17.22,59.88,3.71,5.9,9.01,10.84,13.87,15.95,21.78,22.88,22.46,37.79,2.75,65.36-23.86,33.37-14.94,74.17,20.33,90.45,18.47,8.53,37.52,7.35,50.53-.98ZM1112.04,1694.33c24.63-32.17,19.44-73.1-7.52-88.31-12.12-6.84-25.96-11.08-39.49-15.26-22.27-6.88-28.23-17.66-21.8-42.38,8.51-32.69,4.57-48.44-15.05-60.11-16.09-9.57-39.93-5.66-53.65,8.8-16.37,17.24-15.73,48.25,1.79,62.77,5.34,4.43,11.92,7.41,18.13,10.7,27.8,14.74,32.99,28.75,22.56,61.49-12.64,39.63,8.33,75.67,47.02,79.71,20.26,2.12,38.11-5.22,48.01-17.41ZM1264.82,1606.36c14.44-35.65-1.62-72.23-31.17-79.81-13.29-3.41-27.48-4.01-41.38-4.62-22.86-1.01-31.43-9.54-32.1-33.93-.89-32.26-8.9-45.87-30.57-51.94-17.77-4.98-39.18,4.36-48.17,21.02-10.72,19.87-1.67,48.37,18.81,57.58,6.24,2.81,13.25,3.99,20,5.54,30.22,6.94,38.94,18.64,38.03,51.41-1.1,39.66,28.48,67.93,66.05,62.37,19.67-2.91,34.5-13.98,40.5-27.62ZM1390.46,1501.65c8.63-35.53-14.3-68.42-46.04-72.22-14.27-1.71-28.99-.64-43.4.38-23.71,1.67-34.02-5.45-38.98-28.54-6.56-30.54-17.18-42.54-40.55-45.81-19.16-2.68-39.56,8.65-45.9,25.51-7.56,20.1,6.74,46.14,29.43,52.53,6.92,1.95,14.34,2.26,21.56,2.96,32.33,3.12,43.34,13.23,48.14,44.45,5.81,37.8,41.2,61.24,78.9,51.64,19.74-5.03,33.07-17.25,36.86-30.9Z"/>
</svg>