<?xml version="1.0" encoding="UTF-8"?>
<svg id="Camada_1" data-name="Camada 1" xmlns="http://www.w3.org/2000/svg" xmlns:xlink="http://www.w3.org/1999/xlink" viewBox="0 0 3833.14 2146.29">
  <defs>
    <style>
      .cls-1 {
        letter-spacing: -.07em;
      }

      .cls-2 {
        fill: #215286;
        font-size: 458.51px;
        stroke: #235286;
        stroke-miterlimit: 10;
        stroke-width: 2px;
      }

      .cls-2, .cls-3 {
        font-family: ArialMT, Arial;
      }

      .cls-4 {
        fill: url(#Gradiente_sem_nome_59);
        stroke-width: 0px;
      }

      .cls-3 {
        fill: #26a0b1;
        font-size: 170.77px;
      }
    </style>
    <linearGradient id="Gradiente_sem_nome_59" data-name="Gradiente sem nome 59" x1="762.43" y1="671.92" x2="767.85" y2="1983.55" gradientUnits="userSpaceOnUse">
      <stop offset=".07" stop-color="#26a0b1"/>
      <stop offset=".08" stop-color="#26a0b1" stop-opacity=".99"/>
      <stop offset=".19" stop-color="#26a0b1" stop-opacity=".89"/>
      <stop offset=".3" stop-color="#26a0b1" stop-opacity=".82"/>
      <stop offset=".42" stop-color="#26a0b1" stop-opacity=".8"/>
      <stop offset=".5" stop-color="#26a0b1" stop-opacity=".69"/>
      <stop offset=".62" stop-color="#26a0b1" stop-opacity=".55"/>
      <stop offset=".69" stop-color="#26a0b1" stop-opacity=".5"/>
      <stop offset="1" stop-color="#26a0b1" stop-opacity=".2"/>
    </linearGradient>
  </defs>
  <text class="cls-3" transform="translate(1831.73 1378.75) scale(1.32 1)"><tspan x="0" y="0">PROCEDURES</tspan></text>
  <text class="cls-2" transform="translate(1401.53 1155.43) scale(1.08 1)"><tspan x="0" y="0">CON</tspan><tspan class="cls-1" x="1018.89" y="0">A</tspan><tspan x="1290.69" y="0">TUS</tspan></text>
  <path class="cls-4" d="M154.45,1321.06c.44-38.38,31.93-65.89,64.83-61.52,14.79,1.97,29.32,6.87,43.56,11.65,23.41,7.86,35.61,3.29,46.52-18.91,14.43-29.37,28.2-38.82,52.54-36.08,19.96,2.24,37.57,19.07,39.62,37.86,2.45,22.41-18.62,45.19-43.08,45.8-7.46.19-15-1.42-22.44-2.59-33.31-5.22-46.98,2.21-59.82,32.73-15.54,36.95-57.15,51.61-92.6,32.06-18.56-10.24-28.83-26.13-29.14-41ZM128.47,1195.66c29.63,27.58,73.56,23.46,97.61-8.61,19.86-26.49,34.93-30.37,65.97-17.22,6.94,2.94,13.86,6.33,21.14,7.96,23.87,5.35,49.84-11.63,52.91-33.96,2.58-18.73-10.42-39.33-29.24-46.35-22.95-8.57-38.6-2.74-59.73,22.24-15.98,18.89-28.92,20.36-49.72,7.05-12.65-8.09-25.55-16.38-39.42-21.88-30.85-12.23-68.09,6.8-77.83,43.93-3.31,14.5,2.79,32.41,18.31,46.85ZM129.3,1015.72c20.4,34.96,63.65,43.71,95.93,19.96,26.67-19.62,42.21-18.99,68.14,2.58,5.79,4.82,11.44,10.06,17.94,13.73,21.31,12.02,51.07,3.27,60.47-17.23,7.88-17.19,1.39-40.66-14.6-52.82-19.5-14.83-36.16-13.78-63.61,4.03-20.75,13.46-33.57,11.13-49.64-7.62-9.77-11.4-19.73-23.06-31.42-32.33-26-20.63-67.15-13.16-87.2,19.57-7.36,12.93-6.69,31.83,3.99,50.14ZM175.99,848.08c10.3,39.11,50.18,57.03,88.32,40.3,31.5-13.82,46.53-9.88,65.93,17.09,4.33,6.02,8.41,12.45,13.76,17.47,17.52,16.49,49.05,14.14,63.9-4.24,12.45-15.41,12.58-40.13.3-55.63-14.97-18.9-31.56-21.4-63.33-9.55-24.02,8.96-35.9,3.91-46.45-18.16-6.41-13.41-12.93-27.13-21.81-38.84-19.74-26.05-62.04-27.39-90.69.86-10.76,11.28-15.33,30.22-9.93,50.7ZM277.58,706.04c.36,38.99,33.43,65.1,73.1,58.39,32.77-5.54,45.9,1.67,57.65,31.43,2.63,6.65,4.92,13.61,8.73,19.56,12.49,19.53,42.56,24.72,60.82,11.01,15.31-11.49,21.31-34.58,13.5-51.96-9.53-21.19-24.46-27.41-57.01-23.77-24.61,2.75-34.54-4.76-39.16-27.87-2.81-14.05-5.66-28.41-11.19-41.44-12.29-28.99-51.57-40.16-85.1-20.45-12.75,8.03-21.53,24.67-21.34,45.09ZM417.32,579.95c-13.94,35.18,8.8,68.43,50.01,74.1,34.04,4.68,44.22,15.05,44.8,45.29.13,6.76-.18,13.7,1.35,20.18,5.04,21.25,32.51,34.8,55.37,27.85,19.17-5.82,33.49-24.82,32.22-42.76-1.54-21.87-13.85-31.88-46.98-38.21-25.05-4.79-31.99-14.47-28.04-36.63,2.4-13.47,4.88-27.22,4.26-40.58-1.38-29.7-35.66-51.35-75.63-43.51-15.4,3.46-30.07,15.84-37.37,34.26ZM591.06,495.33c-23.59,28.56-12.41,66.35,24.3,84.04,30.32,14.61,36.7,27.32,28.13,55.65-1.92,6.33-4.3,12.7-4.81,19.19-1.7,21.3,19.83,42.18,43.23,42.6,19.62.35,38.7-13.02,42.92-30.1,5.15-20.83-3.31-33.85-32.28-49.72-21.91-12-25.47-23.11-15.11-42.54,6.29-11.82,12.75-23.88,16.19-36.5,7.66-28.07-17.77-58.54-57.4-63.28-15.4-1.42-32.8,5.69-45.16,20.65ZM767.6,449.24c-31.42,22.08-30.04,62.82,2.48,90.42,26.86,22.8,29.97,37.21,13.82,63.15-3.61,5.79-7.7,11.5-9.93,17.84-7.33,20.79,8.97,47.46,32.56,54.23,19.78,5.68,42.62-2.49,51.4-18.38,10.7-19.38,5.57-34.66-19.6-58.35-19.03-17.91-19.71-29.96-4.1-46.54,9.49-10.08,19.2-20.35,26.02-32.01,15.15-25.92-2.58-63.21-41.47-78.7-15.22-5.59-34.72-3.23-51.18,8.34ZM963.69,455.02c-35.92,11.46-48.54,49.81-28.52,84.97,16.53,29.04,14.44,43.37-8.98,62.84-5.23,4.35-10.87,8.48-15.05,13.74-13.7,17.24-8.03,46.82,11,59.97,15.96,11.03,39.39,10.04,52.73-2.21,16.27-14.95,16.83-30.68,2.13-60.05-11.11-22.21-7.63-33.63,12.12-44.55,12.01-6.64,24.29-13.39,34.41-22.28,22.52-19.75,19.17-59.65-10.73-85.35-11.86-9.63-30.3-13.08-49.11-7.08ZM1142.25,507.83c-38.36-1.81-61.46,31.58-51.74,73.77,8.04,34.85,1.97,48.28-26.41,59-6.34,2.39-13.01,4.42-18.58,8.1-18.24,12.07-20.99,43.46-6.06,63.48,12.52,16.78,35.73,24.4,52.22,17.14,20.11-8.85,25.07-24.24,18.92-58.75-4.65-26.09,1.97-36.13,24.36-39.71,13.61-2.18,27.52-4.37,39.92-9.46,27.57-11.32,35.49-52.1,13.44-88.54-8.91-13.89-25.98-24.07-46.07-25.02ZM1302.98,613.9c-37.58-8.25-71.12,16.76-74.79,55.12-3.03,31.69-13.32,42.31-44.94,46.69-7.06.98-14.34,1.58-21.04,3.81-21.96,7.31-34.63,34.13-26.11,54.12,7.14,16.76,27.81,27.42,46.51,23.98,22.8-4.2,32.6-16.71,37.41-47.77,3.63-23.48,13.39-31.06,36.79-30.28,14.22.48,28.76.99,42.7-1.28,31.01-5.05,51.78-39.11,41.38-74.62-4.46-13.63-18.22-25.44-37.9-29.76ZM1108.37,789.96c-24.82-.64-44.61,18.2-44.16,41.61.37,19.34-5.48,26.89-25.54,33.14-4.48,1.4-9.13,2.59-13.28,4.69-13.62,6.9-19.82,24.43-12.86,35.44,5.83,9.23,19.93,13.25,31.73,9.04,14.39-5.13,19.79-13.75,20.61-32.93.62-14.49,6.35-20.16,21.49-22.37,9.2-1.35,18.61-2.7,27.42-5.66,19.61-6.58,30.5-29.38,21.2-49.48-3.88-7.66-13.61-13.16-26.61-13.5ZM1006.89,737.49c-25.02,4.51-38.98,28.34-31.29,52.75,6.35,20.16,2.83,29.28-15.29,40-4.05,2.4-8.33,4.61-11.83,7.68-11.48,10.06-12.26,29.69-1.9,39.76,8.69,8.44,24.03,9.71,34.53,2.85,12.8-8.37,15.53-18.52,10.42-38.75-3.86-15.3.12-22.42,14.57-27.89,8.79-3.33,17.77-6.71,25.67-11.64,17.58-10.97,21.42-37.1,5.9-56.19-6.24-7.2-17.68-10.94-30.79-8.57ZM904.52,715c-22.7,11.45-29.29,38.27-14.97,59.48,11.83,17.52,11.06,27.26-3.26,42.7-3.2,3.45-6.67,6.79-9.15,10.73-8.14,12.92-3.29,31.96,9.51,38.66,10.73,5.62,25.8,2.46,33.91-7.11,9.89-11.67,9.62-22.17-1.05-40.11-8.06-13.56-6.27-21.52,6.02-30.88,7.48-5.69,15.12-11.49,21.29-18.47,13.73-15.53,9.96-41.67-10.35-55.54-8.04-5.13-20.06-5.45-31.95.55ZM793.49,713.06c-19.12,16.76-18.8,44.38.36,61.34,15.83,14.01,17.52,23.63,7.51,42.16-2.24,4.14-4.76,8.25-6.18,12.68-4.66,14.54,4.79,31.77,18.86,35.06,11.8,2.76,25.6-4.06,31.06-15.35,6.66-13.77,3.77-23.87-11.03-38.58-11.19-11.12-11.45-19.27-1.88-31.41,5.82-7.38,11.77-14.91,16-23.21,9.41-18.46-.76-42.83-23.9-51.2-9.06-2.96-20.79-.26-30.8,8.52ZM686.07,740.33c-12.64,22.06-3.38,48.08,20.26,57.9,19.52,8.11,24.24,16.67,20.79,37.44-.77,4.64-1.82,9.34-1.73,14,.31,15.27,14.84,28.49,29.22,27.03,12.05-1.22,22.89-12.15,24.4-24.61,1.83-15.19-4.18-23.8-22.96-32.91-14.2-6.88-17.09-14.51-11.98-29.1,3.11-8.87,6.3-17.92,7.6-27.15,2.91-20.52-14.63-40.27-39.23-40.66-9.53.15-19.75,6.5-26.37,18.05ZM586.96,792.91c-5.08,24.91,11.89,46.71,37.41,48.61,21.08,1.57,28.25,8.21,31.49,29.02.73,4.65,1.2,9.44,2.75,13.83,5.09,14.4,23.04,22.39,36.23,16.49,11.06-4.94,17.92-18.73,15.44-31.02-3.03-14.99-11.45-21.29-32.13-24.04-15.64-2.08-20.78-8.41-20.51-23.87.16-9.39.35-18.99-1.31-28.16-3.68-20.39-26.53-33.64-50.01-26.29-9,3.13-16.71,12.37-19.37,25.42ZM510.09,861.18c1.76,25.77,24.06,42.91,49.32,38.35,20.87-3.77,29.6.95,38.33,20.59,1.95,4.39,3.7,8.98,6.38,12.9,8.8,12.87,28.35,16.2,39.56,7.08,9.4-7.65,12.36-22.93,6.65-34.38-6.96-13.97-16.81-18.04-37.61-15.53-15.72,1.9-22.41-3.03-26.29-18.29-2.36-9.28-4.76-18.76-8.82-27.35-9.04-19.12-34.75-26.38-55.55-13.24-7.89,5.35-12.88,16.37-11.96,29.87ZM449.49,943.56c8.01,24.26,33.38,36.03,56.21,26.44,18.86-7.93,28.3-5.22,41.41,11.74,2.93,3.79,5.72,7.82,9.23,11.01,11.51,10.47,30.87,9.61,39.26-1.43,7.03-9.25,6.07-24.47-2.16-34.24-10.04-11.91-20.38-13.76-39.49-7.05-14.44,5.07-21.99,1.74-29.43-12.03-4.52-8.38-9.13-16.94-15.1-24.31-13.28-16.4-39.45-18.01-55.94-1.14-6.17,6.75-8.19,18.32-3.99,31.03ZM1179.78,1337.56c6.43-21.19-9.5-42.92-31.93-47.41-10.09-2.02-20.51-2.37-30.72-2.73-16.79-.59-24.03-5.66-27.33-20.15-4.37-19.17-11.78-27.25-28.29-30.85-13.54-2.95-28.08,2.61-32.72,12.51-5.53,11.81,4.35,28.75,20.35,34.21,4.88,1.67,10.13,2.36,15.23,3.28,22.85,4.11,30.55,11.06,33.66,30.53,3.77,23.57,28.6,40.35,55.37,37.04,14.02-1.74,23.56-8.32,26.37-16.43ZM1108.72,1398.53c9.49-22.7-2.71-47.18-23.87-53.26-9.51-2.73-19.61-3.67-29.5-4.61-16.26-1.54-22.53-7.44-23.54-23.37-1.33-21.08-7.32-30.26-22.84-35.06-12.73-3.93-27.74,1.34-33.76,11.86-7.19,12.55-.14,31.49,14.61,38.29,4.5,2.07,9.5,3.11,14.33,4.38,21.62,5.69,28.07,13.66,28.13,35,.08,25.83,21.71,45.41,48.27,43.23,13.91-1.14,24.21-7.79,28.18-16.46ZM1008.34,1454.32c16.03-18.66,12.55-45.2-5.1-56.97-7.93-5.29-16.99-9.06-25.84-12.77-14.56-6.1-18.49-13.44-14.33-28.74,5.5-20.23,2.89-30.59-9.96-39.54-10.53-7.34-26.11-6.67-35.04,1.51-10.66,9.76-10.18,29.61,1.3,40.23,3.5,3.24,7.8,5.64,11.87,8.22,18.2,11.54,21.62,20.89,14.87,41-8.17,24.35,5.6,48.96,30.89,54.51,13.25,2.9,24.9-.42,31.34-7.44ZM900.63,1480.95c20.93-14.24,24.93-41,10.92-56.88-6.3-7.14-14.12-13.07-21.76-18.88-12.57-9.57-14.37-17.71-6.02-31.61,11.04-18.38,11.38-29.14,1.29-41.07-8.27-9.78-23.73-13-34.78-7.23-13.18,6.88-18.25,26.38-9.96,39.59,2.53,4.03,6.07,7.45,9.34,10.97,14.62,15.79,15.36,25.76,3.12,43.71-14.81,21.73-8.19,49.18,15.06,60.88,12.17,6.12,24.52,5.78,32.8.52ZM784.74,1483.52c23.82-6.15,36.08-30.15,28.27-50.15-3.51-8.99-8.81-17.37-13.98-25.57-8.51-13.5-7.55-21.86,4.58-32.12,16.05-13.56,19.8-23.66,14.33-38.53-4.48-12.19-17.68-20.68-29.69-19.09-14.33,1.9-25.25,18.62-21.85,34.07,1.04,4.71,3.2,9.2,5.08,13.7,8.4,20.12,5.89,29.85-11.12,42.59-20.59,15.42-23.29,43.8-5.64,63.07,9.24,10.09,20.72,14.11,30.02,12.02ZM674.45,1457.41c25.55-.53,43.67-20.91,40.55-41.98-1.4-9.48-4.75-18.77-8.02-27.86-5.37-14.97-2.41-22.82,12.3-29.96,19.46-9.45,25.66-18.34,23.69-33.93-1.62-12.79-12.93-23.98-25.45-25.17-14.94-1.43-29.96,12.23-30.22,27.93-.08,4.78,1.04,9.61,1.86,14.38,3.68,21.33-1.18,30.15-21.42,38.58-24.5,10.2-34,36.99-20.77,59.6,6.93,11.84,17.57,18.32,27.47,18.43ZM574.87,1406.61c24.69,7.26,48.17-6.47,51.47-27.3,1.48-9.37,1.04-19.15.62-28.73-.69-15.75,4.5-22.26,20.76-24.54,21.51-3.01,30.12-9.51,32.88-24.83,2.27-12.56-5.25-26.55-16.92-31.48-13.92-5.88-32.43,2.45-37.36,17.18-1.5,4.49-1.87,9.38-2.51,14.13-2.84,21.25-10.14,28.09-32.09,29.9-26.57,2.19-43.7,24.58-37.74,49.94,3.12,13.28,11.4,22.62,20.88,25.73ZM489.79,1331.91c20.5,14.02,46.91,7.34,56.96-11.93,4.52-8.66,7.38-18.28,10.2-27.69,4.64-15.47,11.64-20.32,27.51-17.93,20.98,3.16,31.16-.71,38.87-14.78,6.31-11.54,4.02-27.23-5.17-35.31-10.96-9.63-30.94-6.79-40.46,6.1-2.9,3.93-4.89,8.57-7.06,13-9.76,19.8-18.83,24.38-39.82,19.93-25.42-5.39-48.83,11.49-51.79,37.76-1.55,13.76,3.01,25.16,10.77,30.85ZM433.01,1238.52c16.62,18.77,44.13,18.75,58.7,2.36,6.55-7.37,11.72-16.08,16.79-24.59,8.34-14.01,16.39-17.02,31.34-10.77,19.77,8.27,30.69,6.98,41.69-4.89,9.02-9.74,10.63-25.67,3.62-35.84-8.36-12.13-28.62-14.27-41.11-4-3.81,3.13-6.89,7.19-10.11,10.98-14.42,16.98-24.43,19.23-43.89,9.7-23.56-11.54-50.63-.78-59.99,24.21-4.9,13.09-3.24,25.38,2.96,32.86ZM403.28,1131.84c11.36,23.3,38.12,31.17,56.51,19.19,8.27-5.39,15.53-12.49,22.65-19.43,11.71-11.42,20.32-12.08,33.26-1.62,17.11,13.84,28.06,15.71,41.81,7.15,11.28-7.02,16.93-22.27,12.72-34.32-5.02-14.37-24.18-22.31-38.97-15.76-4.51,2-8.55,5.11-12.66,7.93-18.39,12.61-28.7,11.95-45.19-3.05-19.96-18.15-49.06-15.32-64.58,6.64-8.13,11.5-9.67,24.1-5.56,33.26ZM407.31,1023.81c5.03,25.42,28.9,39.87,49.74,32.98,9.37-3.1,18.2-8.11,26.86-13.01,14.24-8.05,22.73-6.5,32.57,6.92,13.01,17.74,23.12,22.35,38.6,17.59,12.69-3.91,22.05-17.21,21.06-29.93-1.18-15.17-17.69-27.74-33.66-25.18-4.87.78-9.57,2.76-14.26,4.44-21,7.5-30.8,4.23-42.92-14.48-14.67-22.64-43.52-27.33-64.13-10.06-10.8,9.05-15.5,20.84-13.86,30.74ZM272.37,1511.71c38.4,19.71,80.17,6.75,90.85-24.13,4.8-13.88,6.56-29.07,8.31-43.94,2.88-24.45,13-32.66,40.08-30.52,35.82,2.83,51.52-4.18,59.92-26.76,6.89-18.52-1.81-42.62-19.58-54.24-21.19-13.86-53.48-7.48-65.27,13.45-3.59,6.38-5.44,13.78-7.68,20.85-10.03,31.67-23.67,39.66-59.91,34.84-43.87-5.84-77.48,22.64-74.22,63.67,1.71,21.49,12.83,38.72,27.49,46.78ZM406.68,1632.75c39.44,9.61,75.14-12.62,78.49-44.5,1.51-14.33-.06-29.19-1.57-43.73-2.48-23.92,5.11-34.13,30.46-38.52,33.54-5.82,46.5-16.2,49.49-39.66,2.45-19.24-10.6-40.08-29.38-46.91-22.39-8.14-50.75,5.59-57.2,28.28-1.97,6.92-2.11,14.38-2.69,21.64-2.58,32.48-13.45,43.32-47.79,47.33-41.57,4.87-66.5,39.91-54.9,78.13,6.08,20.02,19.92,33.76,35.08,37.93ZM571.26,1712.72c39.25.29,67.94-29.59,64.04-61.42-1.75-14.31-6.51-28.43-11.14-42.25-7.62-22.74-2.73-34.43,20.16-44.54,30.28-13.38,40.19-26.49,37.82-50.03-1.94-19.31-18.84-36.61-38.02-38.94-22.87-2.78-46.53,17.13-47.59,40.72-.32,7.19,1.19,14.5,2.25,21.7,4.75,32.24-3.09,45.3-34.52,57.12-38.05,14.31-53.78,54.19-34.41,88.76,10.14,18.11,26.21,28.31,41.41,28.89ZM759.6,1752.03c38.55-12.17,57.66-48.88,44.26-77.06-6.03-12.67-14.94-24.2-23.64-35.51-14.32-18.6-13.05-30.94,6.34-47.55,25.64-21.97,31.4-37.21,21.99-58.22-7.72-17.22-29.48-27.86-48.98-23.93-23.25,4.68-40.44,30.58-34.37,52.71,1.85,6.75,5.53,13.02,8.74,19.34,14.36,28.29,10.62,42.83-16.63,63.72-32.98,25.28-36.38,67.12-6.99,92.93,15.39,13.52,34.21,17.85,49.27,13.57ZM952.6,1745.8c33.12-22.6,40.6-63.18,19.63-86.37-9.43-10.43-21.27-18.95-32.85-27.31-19.04-13.75-21.44-25.94-7.84-47.35,17.99-28.31,19.02-44.56,3.94-62.01-12.36-14.31-36.17-18.32-53.58-9.03-20.75,11.08-29.55,40.76-17.32,60.24,3.73,5.94,9.06,10.9,13.96,16.05,21.92,23.02,22.59,38.02,2.77,65.75-24,33.57-15.03,74.62,20.46,90.99,18.59,8.58,37.75,7.39,50.83-.98ZM1138.99,1691.34c24.78-32.37,19.56-73.54-7.56-88.84-12.19-6.88-26.11-11.15-39.73-15.35-22.4-6.92-28.4-17.77-21.93-42.64,8.57-32.89,4.6-48.73-15.14-60.47-16.18-9.63-40.17-5.69-53.98,8.85-16.46,17.35-15.83,48.54,1.8,63.15,5.37,4.45,11.99,7.45,18.24,10.77,27.97,14.83,33.19,28.92,22.69,61.86-12.71,39.87,8.38,76.12,47.3,80.19,20.38,2.13,38.34-5.25,48.3-17.51ZM1292.69,1602.84c14.53-35.87-1.63-72.66-31.35-80.29-13.37-3.43-27.65-4.03-41.63-4.64-23-1.01-31.61-9.6-32.29-34.13-.9-32.46-8.95-46.14-30.76-52.25-17.88-5.01-39.41,4.39-48.45,21.15-10.79,19.99-1.68,48.66,18.92,57.93,6.28,2.82,13.33,4.01,20.12,5.57,30.41,6.98,39.17,18.75,38.26,51.72-1.11,39.9,28.66,68.34,66.44,62.74,19.79-2.93,34.7-14.07,40.74-27.79ZM1419.09,1497.51c8.68-35.74-14.38-68.83-46.32-72.65-14.36-1.72-29.17-.65-43.66.38-23.85,1.68-34.22-5.48-39.21-28.71-6.6-30.72-17.29-42.8-40.8-46.09-19.28-2.7-39.8,8.7-46.18,25.66-7.61,20.22,6.78,46.42,29.61,52.84,6.96,1.96,14.42,2.27,21.69,2.98,32.52,3.14,43.6,13.31,48.43,44.72,5.84,38.03,41.45,61.61,79.37,51.95,19.86-5.06,33.26-17.35,37.08-31.08Z"/>
</svg>